# File produced by Open Asset Import Library (http://www.assimp.sf.net)
# (assimp v3.1.187496374)

mtllib Cannon.obj.mtl

# 153 vertex positions
v  168.342 130.893 1010
v  191.123 141.19 1010
v  162.138 141.998 1010
v  172.58 118.898 1010
v  196.773 125.198 1010
v  182.851 155.997 1010
v  154.147 151.895 1010
v  172.196 169.194 1010
v  144.597 160.3 1010
v  159.463 180.4 1010
v  133.765 166.969 1010
v  145.02 189.293 1010
v  121.962 171.713 1010
v  129.282 195.617 1010
v  109.526 174.393 1010
v  112.702 199.19 1010
v  96.8169 174.932 1010
v  95.7559 199.91 1010
v  84.1991 173.317 1010
v  78.9321 197.756 1010
v  72.0358 169.592 1010
v  62.7144 192.789 1010
v  60.677 163.865 1010
v  47.5693 185.153 1010
v  50.4494 156.3 1010
v  33.9325 175.067 1010
v  41.6473 147.117 1010
v  22.1964 162.822 1010
v  34.5239 136.577 1010
v  12.6986 148.77 1010
v  29.2842 124.985 1010
v  5.71226 133.314 1010
v  26.0788 112.675 1010
v  1.43841 116.9 1010
v  25 100 1010
v  0 100 1010
v  26.0788 87.3249 1010
v  1.43841 83.0999 1010
v  29.2842 75.0145 1010
v  5.71226 66.686 1010
v  34.5239 63.4229 1010
v  12.6986 51.2305 1010
v  41.6473 52.8835 1010
v  22.1964 37.178 1010
v  50.4494 43.6996 1010
v  33.9325 24.9328 1010
v  60.677 36.1353 1010
v  47.5693 14.8471 1010
v  72.0358 30.4083 1010
v  62.7144 7.2111 1010
v  84.1991 26.6834 1010
v  78.9321 2.24448 1010
v  96.8169 25.0676 1010
v  95.7559 0.0901073 1010
v  109.526 25.6075 1010
v  112.702 0.80996 1010
v  121.962 28.2875 1010
v  129.282 4.38333 1010
v  133.765 33.0306 1010
v  145.02 10.7074 1010
v  144.597 39.7002 1010
v  159.463 19.6003 1010
v  154.147 48.1046 1010
v  172.196 30.8061 1010
v  162.138 58.0019 1010
v  182.851 44.0025 1010
v  168.342 69.1074 1010
v  191.123 58.8099 1010
v  172.58 81.1016 1010
v  196.773 74.8022 1010
v  174.73 93.6396 1010
v  199.64 91.5194 1010
v  175 100 1010
v  200 100 1010
v  174.73 106.36 1010
v  199.64 108.481 1010
v  199.64 91.5194 0
v  196.773 74.8022 0
v  191.123 58.8099 0
v  182.851 44.0025 0
v  172.196 30.8061 0
v  159.463 19.6003 0
v  145.02 10.7074 0
v  129.282 4.38333 0
v  112.702 0.80996 0
v  95.7559 0.0901073 0
v  78.9321 2.24448 0
v  62.7144 7.2111 0
v  47.5693 14.8471 0
v  33.9325 24.9328 0
v  22.1964 37.178 0
v  12.6986 51.2305 0
v  5.71226 66.686 0
v  1.43841 83.0999 0
v  0 100 0
v  1.43841 116.9 0
v  5.71226 133.314 0
v  12.6986 148.77 0
v  22.1964 162.822 0
v  33.9325 175.067 0
v  47.5693 185.153 0
v  62.7144 192.789 0
v  78.9321 197.756 0
v  95.7559 199.91 0
v  112.702 199.19 0
v  129.282 195.617 0
v  145.02 189.293 0
v  159.463 180.4 0
v  172.196 169.194 0
v  182.851 155.997 0
v  191.123 141.19 0
v  196.773 125.198 0
v  199.64 108.481 0
v  25 100 10
v  26.0788 112.675 10
v  29.2842 124.985 10
v  34.5239 136.577 10
v  41.6473 147.117 10
v  50.4494 156.3 10
v  60.677 163.865 10
v  72.0358 169.592 10
v  84.1991 173.317 10
v  96.8169 174.932 10
v  109.526 174.393 10
v  121.962 171.713 10
v  133.765 166.969 10
v  144.597 160.3 10
v  154.147 151.895 10
v  162.138 141.998 10
v  168.342 130.893 10
v  172.58 118.898 10
v  174.73 106.36 10
v  175 100 10
v  174.73 93.6396 10
v  172.58 81.1016 10
v  168.342 69.1074 10
v  162.138 58.0019 10
v  154.147 48.1046 10
v  144.597 39.7002 10
v  133.765 33.0306 10
v  121.962 28.2875 10
v  109.526 25.6075 10
v  96.8169 25.0676 10
v  84.1991 26.6834 10
v  72.0358 30.4083 10
v  60.677 36.1353 10
v  50.4494 43.6996 10
v  41.6473 52.8835 10
v  34.5239 63.4229 10
v  29.2842 75.0145 10
v  26.0788 87.3249 10
v  100 100 10
v  100 100 0

# 0 UV coordinates

# 153 vertex normals
vn 0 0 1
vn 0.998398 -0.0565826 0
vn 0.990012 -0.140981 0
vn 0.980427 -0.196884 0
vn 0.951946 -0.306266 0
vn 0.933051 -0.359745 0
vn 0.886494 -0.462741 0
vn 0.858832 -0.512257 0
vn 0.795539 -0.605903 0
vn 0.759907 -0.650032 0
vn 0.681698 -0.731634 0
vn 0.63912 -0.769107 0
vn 0.548245 -0.836318 0
vn 0.499947 -0.866056 0
vn 0.399021 -0.916942 0
vn 0.346392 -0.93809 0
vn 0.238317 -0.971187 0
vn 0.182872 -0.983137 0
vn 0.070758 -0.997494 0
vn 0.0140902 -0.999901 0
vn -0.098837 -0.995104 0
vn -0.155096 -0.987899 0
vn -0.265589 -0.964086 0
vn -0.319821 -0.947478 0
vn -0.4247 -0.905334 0
vn -0.475346 -0.879799 0
vn -0.571593 -0.820537 0
vn -0.617195 -0.78681 0
vn -0.702043 -0.712135 0
vn -0.741289 -0.671186 0
vn -0.812296 -0.583246 0
vn -0.844057 -0.536254 0
vn -0.899181 -0.437577 0
vn -0.922543 -0.385894 0
vn -0.960198 -0.279321 0
vn -0.97449 -0.224432 0
vn -0.993592 -0.113029 0
vn -0.998402 -0.0565145 0
vn -0.998402 0.0565145 0
vn -0.993592 0.113029 0
vn -0.97449 0.224432 0
vn -0.960198 0.279321 0
vn -0.922543 0.385894 0
vn -0.899181 0.437577 0
vn -0.844057 0.536254 0
vn -0.812296 0.583246 0
vn -0.741289 0.671186 0
vn -0.702043 0.712135 0
vn -0.617195 0.78681 0
vn -0.571593 0.820537 0
vn -0.475346 0.879799 0
vn -0.4247 0.905334 0
vn -0.319821 0.947478 0
vn -0.265589 0.964086 0
vn -0.155096 0.987899 0
vn -0.098837 0.995104 0
vn 0.0140902 0.999901 0
vn 0.070758 0.997494 0
vn 0.182872 0.983137 0
vn 0.238317 0.971187 0
vn 0.346392 0.93809 0
vn 0.399021 0.916942 0
vn 0.499947 0.866056 0
vn 0.548245 0.836318 0
vn 0.63912 0.769107 0
vn 0.681698 0.731634 0
vn 0.759907 0.650032 0
vn 0.795539 0.605903 0
vn 0.858832 0.512257 0
vn 0.886494 0.462741 0
vn 0.933051 0.359745 0
vn 0.951946 0.306266 0
vn 0.980427 0.196884 0
vn 0.990012 0.140981 0
vn 0.998398 0.0565826 0
vn 1 0 0
vn 0.998402 -0.0565145 0
vn 0.993592 -0.113029 0
vn 0.97449 -0.224432 0
vn 0.960198 -0.279321 0
vn 0.922543 -0.385894 0
vn 0.899181 -0.437577 0
vn 0.844057 -0.536254 0
vn 0.812296 -0.583246 0
vn 0.741289 -0.671186 0
vn 0.702043 -0.712135 0
vn 0.617195 -0.78681 0
vn 0.571593 -0.820537 0
vn 0.475346 -0.879799 0
vn 0.4247 -0.905334 0
vn 0.319821 -0.947478 0
vn 0.265589 -0.964086 0
vn 0.155096 -0.987899 0
vn 0.098837 -0.995104 0
vn -0.0140902 -0.999901 0
vn -0.070758 -0.997494 0
vn -0.182872 -0.983137 0
vn -0.238317 -0.971187 0
vn -0.346392 -0.93809 0
vn -0.399021 -0.916942 0
vn -0.499947 -0.866056 0
vn -0.548245 -0.836318 0
vn -0.63912 -0.769107 0
vn -0.681698 -0.731634 0
vn -0.759907 -0.650032 0
vn -0.795539 -0.605903 0
vn -0.858832 -0.512257 0
vn -0.886494 -0.462741 0
vn -0.933051 -0.359745 0
vn -0.951946 -0.306266 0
vn -0.980427 -0.196884 0
vn -0.990012 -0.140981 0
vn -0.998398 -0.0565826 0
vn -0.9996 -0.0282913 0
vn -0.9996 0.0282913 0
vn -0.998398 0.0565826 0
vn -0.990012 0.140981 0
vn -0.980427 0.196884 0
vn -0.951946 0.306266 0
vn -0.933051 0.359745 0
vn -0.886494 0.462741 0
vn -0.858832 0.512257 0
vn -0.795539 0.605903 0
vn -0.759907 0.650032 0
vn -0.681698 0.731634 0
vn -0.63912 0.769107 0
vn -0.548245 0.836318 0
vn -0.499947 0.866056 0
vn -0.399021 0.916942 0
vn -0.346392 0.93809 0
vn -0.238317 0.971187 0
vn -0.182872 0.983137 0
vn -0.070758 0.997494 0
vn -0.0140902 0.999901 0
vn 0.098837 0.995104 0
vn 0.155096 0.987899 0
vn 0.265589 0.964086 0
vn 0.319821 0.947478 0
vn 0.4247 0.905334 0
vn 0.475346 0.879799 0
vn 0.571593 0.820537 0
vn 0.617195 0.78681 0
vn 0.702043 0.712135 0
vn 0.741289 0.671186 0
vn 0.812296 0.583246 0
vn 0.844057 0.536254 0
vn 0.899181 0.437577 0
vn 0.922543 0.385894 0
vn 0.960198 0.279321 0
vn 0.97449 0.224432 0
vn 0.993592 0.113029 0
vn 0.998402 0.0565145 0
vn 0 0 -1

# Mesh '<STL_BINARY>' with 302 faces
g <STL_BINARY>
usemtl DefaultMaterial
f  1//1 2//1 3//1
f  4//1 5//1 1//1
f  1//1 5//1 2//1
f  3//1 2//1 6//1
f  3//1 6//1 7//1
f  7//1 6//1 8//1
f  7//1 8//1 9//1
f  9//1 8//1 10//1
f  9//1 10//1 11//1
f  11//1 10//1 12//1
f  11//1 12//1 13//1
f  13//1 12//1 14//1
f  13//1 14//1 15//1
f  15//1 14//1 16//1
f  15//1 16//1 17//1
f  17//1 16//1 18//1
f  17//1 18//1 19//1
f  19//1 18//1 20//1
f  19//1 20//1 21//1
f  21//1 20//1 22//1
f  21//1 22//1 23//1
f  23//1 22//1 24//1
f  23//1 24//1 25//1
f  25//1 24//1 26//1
f  25//1 26//1 27//1
f  27//1 26//1 28//1
f  27//1 28//1 29//1
f  29//1 28//1 30//1
f  29//1 30//1 31//1
f  31//1 30//1 32//1
f  31//1 32//1 33//1
f  33//1 32//1 34//1
f  33//1 34//1 35//1
f  35//1 34//1 36//1
f  35//1 36//1 37//1
f  37//1 36//1 38//1
f  37//1 38//1 39//1
f  39//1 38//1 40//1
f  39//1 40//1 41//1
f  41//1 40//1 42//1
f  41//1 42//1 43//1
f  43//1 42//1 44//1
f  43//1 44//1 45//1
f  45//1 44//1 46//1
f  45//1 46//1 47//1
f  47//1 46//1 48//1
f  47//1 48//1 49//1
f  49//1 48//1 50//1
f  49//1 50//1 51//1
f  51//1 50//1 52//1
f  51//1 52//1 53//1
f  53//1 52//1 54//1
f  53//1 54//1 55//1
f  55//1 54//1 56//1
f  55//1 56//1 57//1
f  57//1 56//1 58//1
f  57//1 58//1 59//1
f  59//1 58//1 60//1
f  59//1 60//1 61//1
f  61//1 60//1 62//1
f  61//1 62//1 63//1
f  63//1 62//1 64//1
f  63//1 64//1 65//1
f  65//1 64//1 66//1
f  65//1 66//1 67//1
f  67//1 66//1 68//1
f  67//1 68//1 69//1
f  69//1 68//1 70//1
f  69//1 70//1 71//1
f  71//1 70//1 72//1
f  71//1 72//1 73//1
f  73//1 72//1 74//1
f  73//1 74//1 75//1
f  75//1 74//1 76//1
f  75//1 76//1 4//1
f  4//1 76//1 5//1
f  74//2 72//2 77//2
f  77//3 72//3 70//3
f  77//4 70//4 78//4
f  78//5 70//5 68//5
f  78//6 68//6 79//6
f  79//7 68//7 66//7
f  79//8 66//8 80//8
f  80//9 66//9 64//9
f  80//10 64//10 81//10
f  81//11 64//11 62//11
f  81//12 62//12 82//12
f  82//13 62//13 60//13
f  82//14 60//14 83//14
f  83//15 60//15 58//15
f  83//16 58//16 84//16
f  84//17 58//17 56//17
f  84//18 56//18 85//18
f  85//19 56//19 54//19
f  85//20 54//20 86//20
f  86//21 54//21 52//21
f  86//22 52//22 87//22
f  87//23 52//23 50//23
f  87//24 50//24 88//24
f  88//25 50//25 48//25
f  88//26 48//26 89//26
f  89//27 48//27 46//27
f  89//28 46//28 90//28
f  90//29 46//29 44//29
f  90//30 44//30 91//30
f  91//31 44//31 42//31
f  91//32 42//32 92//32
f  92//33 42//33 40//33
f  92//34 40//34 93//34
f  93//35 40//35 38//35
f  93//36 38//36 94//36
f  94//37 38//37 36//37
f  94//38 36//38 95//38
f  95//39 36//39 34//39
f  95//40 34//40 96//40
f  96//41 34//41 32//41
f  96//42 32//42 97//42
f  97//43 32//43 30//43
f  97//44 30//44 98//44
f  98//45 30//45 28//45
f  98//46 28//46 99//46
f  99//47 28//47 26//47
f  99//48 26//48 100//48
f  100//49 26//49 24//49
f  100//50 24//50 101//50
f  101//51 24//51 22//51
f  101//52 22//52 102//52
f  102//53 22//53 20//53
f  102//54 20//54 103//54
f  103//55 20//55 18//55
f  103//56 18//56 104//56
f  104//57 18//57 16//57
f  104//58 16//58 105//58
f  105//59 16//59 14//59
f  105//60 14//60 106//60
f  106//61 14//61 12//61
f  106//62 12//62 107//62
f  107//63 12//63 10//63
f  107//64 10//64 108//64
f  108//65 10//65 8//65
f  108//66 8//66 109//66
f  109//67 8//67 6//67
f  109//68 6//68 110//68
f  110//69 6//69 2//69
f  110//70 2//70 111//70
f  111//71 2//71 5//71
f  111//72 5//72 112//72
f  112//73 5//73 76//73
f  112//74 76//74 113//74
f  113//75 76//75 74//75
f  113//76 74//76 77//76
f  35//77 114//77 33//77
f  33//78 114//78 115//78
f  33//79 115//79 31//79
f  31//80 115//80 116//80
f  31//81 116//81 29//81
f  29//82 116//82 117//82
f  29//83 117//83 27//83
f  27//84 117//84 118//84
f  27//85 118//85 25//85
f  25//86 118//86 119//86
f  25//87 119//87 23//87
f  23//88 119//88 120//88
f  23//89 120//89 21//89
f  21//90 120//90 121//90
f  21//91 121//91 19//91
f  19//92 121//92 122//92
f  19//93 122//93 17//93
f  17//94 122//94 123//94
f  17//95 123//95 15//95
f  15//96 123//96 124//96
f  15//97 124//97 13//97
f  13//98 124//98 125//98
f  13//99 125//99 11//99
f  11//100 125//100 126//100
f  11//101 126//101 9//101
f  9//102 126//102 127//102
f  9//103 127//103 7//103
f  7//104 127//104 128//104
f  7//105 128//105 3//105
f  3//106 128//106 129//106
f  3//107 129//107 1//107
f  1//108 129//108 130//108
f  1//109 130//109 4//109
f  4//110 130//110 131//110
f  4//111 131//111 75//111
f  75//112 131//112 132//112
f  75//113 132//113 73//113
f  73//114 132//114 133//114
f  73//115 133//115 71//115
f  71//116 133//116 134//116
f  71//117 134//117 69//117
f  69//118 134//118 135//118
f  69//119 135//119 67//119
f  67//120 135//120 136//120
f  67//121 136//121 65//121
f  65//122 136//122 137//122
f  65//123 137//123 63//123
f  63//124 137//124 138//124
f  63//125 138//125 61//125
f  61//126 138//126 139//126
f  61//127 139//127 59//127
f  59//128 139//128 140//128
f  59//129 140//129 57//129
f  57//130 140//130 141//130
f  57//131 141//131 55//131
f  55//132 141//132 142//132
f  55//133 142//133 53//133
f  53//134 142//134 143//134
f  53//135 143//135 51//135
f  51//136 143//136 144//136
f  51//137 144//137 49//137
f  49//138 144//138 145//138
f  49//139 145//139 47//139
f  47//140 145//140 146//140
f  47//141 146//141 45//141
f  45//142 146//142 147//142
f  45//143 147//143 43//143
f  43//144 147//144 148//144
f  43//145 148//145 41//145
f  41//146 148//146 149//146
f  41//147 149//147 39//147
f  39//148 149//148 150//148
f  39//149 150//149 37//149
f  37//150 150//150 151//150
f  37//151 151//151 35//151
f  35//152 151//152 114//152
f  133//1 132//1 152//1
f  133//1 152//1 134//1
f  132//1 131//1 152//1
f  152//1 131//1 130//1
f  152//1 130//1 129//1
f  129//1 128//1 152//1
f  152//1 128//1 127//1
f  152//1 127//1 126//1
f  126//1 125//1 152//1
f  152//1 125//1 124//1
f  152//1 124//1 123//1
f  123//1 122//1 152//1
f  152//1 122//1 121//1
f  152//1 121//1 120//1
f  120//1 119//1 152//1
f  152//1 119//1 118//1
f  152//1 118//1 117//1
f  117//1 116//1 152//1
f  152//1 116//1 115//1
f  152//1 115//1 114//1
f  114//1 151//1 152//1
f  152//1 151//1 150//1
f  152//1 150//1 149//1
f  149//1 148//1 152//1
f  152//1 148//1 147//1
f  152//1 147//1 146//1
f  146//1 145//1 152//1
f  152//1 145//1 144//1
f  152//1 144//1 143//1
f  143//1 142//1 152//1
f  152//1 142//1 141//1
f  152//1 141//1 140//1
f  140//1 139//1 152//1
f  152//1 139//1 138//1
f  152//1 138//1 137//1
f  137//1 136//1 152//1
f  152//1 136//1 135//1
f  152//1 135//1 134//1
f  95//153 96//153 153//153
f  153//153 94//153 95//153
f  96//153 97//153 153//153
f  153//153 97//153 98//153
f  153//153 98//153 99//153
f  99//153 100//153 153//153
f  153//153 100//153 101//153
f  153//153 101//153 102//153
f  102//153 103//153 153//153
f  153//153 103//153 104//153
f  153//153 104//153 105//153
f  105//153 106//153 153//153
f  153//153 106//153 107//153
f  153//153 107//153 108//153
f  108//153 109//153 153//153
f  153//153 109//153 110//153
f  153//153 110//153 111//153
f  111//153 112//153 153//153
f  153//153 112//153 113//153
f  153//153 113//153 77//153
f  77//153 78//153 153//153
f  153//153 78//153 79//153
f  153//153 79//153 80//153
f  80//153 81//153 153//153
f  153//153 81//153 82//153
f  153//153 82//153 83//153
f  83//153 84//153 153//153
f  153//153 84//153 85//153
f  153//153 85//153 86//153
f  86//153 87//153 153//153
f  153//153 87//153 88//153
f  153//153 88//153 89//153
f  89//153 90//153 153//153
f  153//153 90//153 91//153
f  153//153 91//153 92//153
f  92//153 93//153 153//153
f  153//153 93//153 94//153

